# xmcd CD database file
#
# Track frame offsets:
#	150
#	17891
#	53842
#	72345
#	88321
#	104620
#	149762
#
# Disc length: 2647 seconds
#
# Revision: 0
# Processed by: cddbd v1.5.2PL0 Copyright (c) Steve Scherf et al.
# Submitted via: CDex 1.51
#
DISCID=6b0a5507
DTITLE=S.O.S. - S.O.S.
DYEAR=1900
DGENRE=Jazz
TTITLE0=Country Dance
TTITLE1=Wherever I Am
TTITLE2=Chordary
TTITLE3=Where's Junior
TTITLE4=Cycle Motion
TTITLE5=1st_Goliath
TTITLE6=Calypso
EXTD=
EXTT0=
EXTT1=
EXTT2=
EXTT3=
EXTT4=
EXTT5=
EXTT6=
PLAYORDER=
